<svg xmlns="http://www.w3.org/2000/svg">
  <symbol id="icon-setup"
    viewBox="0 0 24 24"
    fill="none"
    stroke="currentColor"
    stroke-width="2"
    stroke-linecap="round"
    stroke-linejoin="round">
    <line x1="18" y1="6" x2="6" y2="18"></line>
    <line x1="6" y1="6" x2="18" y2="18"></line>
  </symbol>

  <symbol id="icon-upload"
    viewBox="0 0 24 24"
    fill="none"
    stroke="currentColor"
    stroke-width="2"
    stroke-linecap="round"
    stroke-linejoin="round">
    <path d="M21 12V6a2 2 0 0 0-2-2H5a2 2 0 0 0-2 2v12a2 2 0 0 0 2 2h7"></path>
    <line x1="16" y1="19" x2="22" y2="19"></line>
    <polyline points="19 16 22 19 19 22"></polyline>
  </symbol>

  <symbol id="icon-save"
    viewBox="0 0 24 24"
    fill="none"
    stroke="currentColor"
    stroke-width="2"
    stroke-linecap="round"
    stroke-linejoin="round">
    <path d="M21 15v4a2 2 0 0 1-2 2H5a2 2 0 0 1-2-2v-4"></path>
    <polyline points="17 8 12 3 7 8"></polyline>
    <line x1="12" y1="3" x2="12" y2="15"></line>
  </symbol>

  <symbol id="icon-reboot"
    viewBox="0 0 24 24"
    fill="none"
    stroke="currentColor"
    stroke-width="2"
    stroke-linecap="round"
    stroke-linejoin="round">
    <path d="M23 4v6h-6"></path>
    <path d="M20.49 15a9 9 0 1 1-2.12-9.36L23 10"></path>
  </symbol>

  <symbol id="icon-shutdown"
    viewBox="0 0 24 24"
    fill="none"
    stroke="currentColor"
    stroke-width="2"
    stroke-linecap="round"
    stroke-linejoin="round">
    <path d="M18.36 6.64a9 9 0 1 1-12.73 0"></path>
    <line x1="12" y1="2" x2="12" y2="12"></line>
  </symbol>
</svg>
